<svg width="24" height="25" viewBox="0 0 24 25" fill="none" xmlns="http://www.w3.org/2000/svg">
<g id="vuesax/linear/category">
<g id="vuesax/linear/category_2">
<g id="category">
<path id="Vector" d="M5.63548 10.7884H7.45366C9.27184 10.7884 10.1809 9.87926 10.1809 8.06108V6.2429C10.1809 4.42472 9.27184 3.51562 7.45366 3.51562H5.63548C3.81729 3.51562 2.9082 4.42472 2.9082 6.2429V8.06108C2.9082 9.87926 3.81729 10.7884 5.63548 10.7884Z" stroke="black" stroke-width="1.4" stroke-miterlimit="10" stroke-linecap="round" stroke-linejoin="round"/>
<path id="Vector_2" d="M16.5437 10.7884H18.3619C20.18 10.7884 21.0891 9.87926 21.0891 8.06108V6.2429C21.0891 4.42472 20.18 3.51562 18.3619 3.51562H16.5437C14.7255 3.51562 13.8164 4.42472 13.8164 6.2429V8.06108C13.8164 9.87926 14.7255 10.7884 16.5437 10.7884Z" stroke="black" stroke-width="1.4" stroke-miterlimit="10" stroke-linecap="round" stroke-linejoin="round"/>
<path id="Vector_3" d="M16.5437 21.6966H18.3619C20.18 21.6966 21.0891 20.7875 21.0891 18.9693V17.1511C21.0891 15.3329 20.18 14.4238 18.3619 14.4238H16.5437C14.7255 14.4238 13.8164 15.3329 13.8164 17.1511V18.9693C13.8164 20.7875 14.7255 21.6966 16.5437 21.6966Z" stroke="black" stroke-width="1.4" stroke-miterlimit="10" stroke-linecap="round" stroke-linejoin="round"/>
<path id="Vector_4" d="M5.63548 21.6966H7.45366C9.27184 21.6966 10.1809 20.7875 10.1809 18.9693V17.1511C10.1809 15.3329 9.27184 14.4238 7.45366 14.4238H5.63548C3.81729 14.4238 2.9082 15.3329 2.9082 17.1511V18.9693C2.9082 20.7875 3.81729 21.6966 5.63548 21.6966Z" stroke="black" stroke-width="1.4" stroke-miterlimit="10" stroke-linecap="round" stroke-linejoin="round"/>
</g>
</g>
</g>
</svg>
