<svg width="22" height="23" viewBox="0 0 22 23" fill="none" xmlns="http://www.w3.org/2000/svg">
<path d="M20.2099 15.4955C19.5737 17 18.5787 18.3257 17.3118 19.3568C16.0449 20.3879 14.5447 21.0929 12.9424 21.4102C11.34 21.7276 9.68434 21.6476 8.12006 21.1773C6.55578 20.7069 5.13054 19.8605 3.96893 18.7121C2.80733 17.5637 1.94473 16.1482 1.45655 14.5894C0.968371 13.0306 0.869476 11.376 1.16851 9.7701C1.46755 8.16425 2.15541 6.6561 3.17196 5.3775C4.18851 4.0989 5.5028 3.08879 6.99992 2.43547" fill="#003366" fill-opacity="0.5"/>
<path d="M20.9999 11.6055C20.9999 10.2922 20.7413 8.99189 20.2387 7.77863C19.7362 6.56538 18.9996 5.46299 18.071 4.5344C17.1424 3.60582 16.04 2.86922 14.8267 2.36667C13.6135 1.86413 12.3131 1.60547 10.9999 1.60547V11.6055H20.9999Z" fill="#003366" fill-opacity="0.5"/>
<path d="M20.2099 15.4955C19.5737 17 18.5787 18.3257 17.3118 19.3568C16.0449 20.3879 14.5447 21.0929 12.9424 21.4102C11.34 21.7276 9.68434 21.6476 8.12006 21.1773C6.55578 20.7069 5.13054 19.8605 3.96893 18.7121C2.80733 17.5637 1.94473 16.1482 1.45655 14.5894C0.968371 13.0306 0.869476 11.376 1.16851 9.7701C1.46755 8.16425 2.15541 6.6561 3.17196 5.3775C4.18851 4.0989 5.5028 3.08879 6.99992 2.43547M20.9999 11.6055C20.9999 10.2923 20.7413 8.99189 20.2387 7.77863C19.7362 6.56538 18.9996 5.46299 18.071 4.5344C17.1424 3.60582 16.04 2.86922 14.8267 2.36667C13.6135 1.86413 12.3131 1.60547 10.9999 1.60547V11.6055H20.9999Z" stroke="#003366" stroke-width="2" stroke-linecap="round" stroke-linejoin="round"/>
</svg>
