<svg width="24" height="25" viewBox="0 0 24 25" fill="none" xmlns="http://www.w3.org/2000/svg">
<path d="M18.0438 22.6057H16.0829C15.7561 22.6057 15.4427 22.4762 15.2124 22.2459C14.9821 22.0156 14.8539 21.7036 14.8563 21.3791V18.3213C14.8563 17.9465 14.7063 17.587 14.4393 17.322C14.1723 17.0569 13.8102 16.908 13.4326 16.908H10.5584C9.77217 16.908 9.13478 17.5408 9.13478 18.3213L18.0438 22.6057ZM18.0438 22.6057C18.9596 22.6081 19.8388 22.2486 20.4872 21.6065C21.1356 20.9645 21.5 20.0927 21.5 19.1835V10.4726C21.5 9.73817 21.1721 9.04155 20.6046 8.57038L18.0438 22.6057ZM8.48478 18.3213V20.9095L8.46134 20.9172L8.45793 21.3832C8.45565 21.6956 8.19853 21.9557 7.87231 21.9557H5.95617C4.40189 21.9557 3.15 20.7061 3.15 19.1746V10.4808C3.16497 9.93461 3.42584 9.42222 3.86341 9.08552L3.86348 9.08562L3.87321 9.07783L10.3916 3.86014L10.4006 3.85295L10.4093 3.84544C11.298 3.08091 12.612 3.05713 13.5282 3.78936L13.5302 3.79092L20.1946 9.0748C20.6109 9.42303 20.85 9.9347 20.85 10.4726V19.1835C20.85 19.9185 20.5555 20.6242 20.0298 21.1446C19.504 21.6653 18.7902 21.9576 18.0455 21.9557H18.0438H16.0829C15.9277 21.9557 15.7799 21.8942 15.672 21.7863C15.5642 21.6785 15.5051 21.5336 15.5063 21.3838H15.5063V21.3791V18.3213C15.5063 17.7726 15.2866 17.2472 14.8972 16.8607C14.508 16.4743 13.9811 16.258 13.4326 16.258H10.5584C9.41766 16.258 8.48478 17.1773 8.48478 18.3213Z" stroke="black" stroke-width="1.3"/>
</svg>
