<svg width="12" height="14" viewBox="0 0 12 14" fill="none" xmlns="http://www.w3.org/2000/svg">
<g id="Group 12322">
<g id="Vector">
<path d="M6.00169 13C6.00169 13 1.2017 10.3 1.2017 5.92C1.18568 5.27963 1.298 4.64253 1.53205 4.04625C1.76609 3.44996 2.11712 2.90655 2.56444 2.44805C3.01177 1.98954 3.54634 1.6252 4.13667 1.37651C4.72699 1.12782 5.36112 0.9998 6.00169 1C6.64227 0.9998 7.2764 1.12782 7.86672 1.37651C8.45705 1.6252 8.99162 1.98954 9.43895 2.44805C9.88627 2.90655 10.2373 3.44996 10.4713 4.04625C10.7054 4.64253 10.8177 5.27963 10.8017 5.92C10.8017 10.3 6.00169 13 6.00169 13Z" stroke="#6B7785" stroke-width="1.2" stroke-linecap="round" stroke-linejoin="round"/>
<path d="M6.00169 13C6.00169 13 1.2017 10.3 1.2017 5.92C1.18568 5.27963 1.298 4.64253 1.53205 4.04625C1.76609 3.44996 2.11712 2.90655 2.56444 2.44805C3.01177 1.98954 3.54634 1.6252 4.13667 1.37651C4.72699 1.12782 5.36112 0.9998 6.00169 1C6.64227 0.9998 7.2764 1.12782 7.86672 1.37651C8.45705 1.6252 8.99162 1.98954 9.43895 2.44805C9.88627 2.90655 10.2373 3.44996 10.4713 4.04625C10.7054 4.64253 10.8177 5.27963 10.8017 5.92C10.8017 10.3 6.00169 13 6.00169 13Z" stroke="#6B7785" stroke-width="1.2" stroke-linecap="round" stroke-linejoin="round"/>
</g>
<g id="Vector_2">
<path d="M6.0002 7.6C6.99431 7.6 7.8002 6.79411 7.8002 5.8C7.8002 4.80589 6.99431 4 6.0002 4C5.00608 4 4.2002 4.80589 4.2002 5.8C4.2002 6.79411 5.00608 7.6 6.0002 7.6Z" stroke="#6B7785" stroke-width="1.2" stroke-linecap="round" stroke-linejoin="round"/>
<path d="M6.0002 7.6C6.99431 7.6 7.8002 6.79411 7.8002 5.8C7.8002 4.80589 6.99431 4 6.0002 4C5.00608 4 4.2002 4.80589 4.2002 5.8C4.2002 6.79411 5.00608 7.6 6.0002 7.6Z" stroke="#6B7785" stroke-width="1.2" stroke-linecap="round" stroke-linejoin="round"/>
</g>
</g>
</svg>
