<svg width="32" height="26" viewBox="0 0 32 26" fill="none" xmlns="http://www.w3.org/2000/svg">
<rect width="32" height="26" rx="4" fill="#F5AA29"/>
<path d="M16.004 14.1686H15.1685C14.8916 14.1686 14.667 14.3932 14.667 14.6703C14.667 14.9472 14.8916 15.1719 15.1685 15.1719H15.5024V15.4069C15.5024 15.6838 15.7271 15.9085 16.004 15.9085C16.2811 15.9085 16.5057 15.6838 16.5057 15.4069V15.0739C16.9951 14.875 17.3412 14.3947 17.3412 13.8347C17.3412 13.0975 16.7413 12.4976 16.004 12.4976C15.8199 12.4976 15.6701 12.3478 15.6701 12.1636C15.6701 11.9795 15.8199 11.8297 16.004 11.8297H16.8396C17.1167 11.8297 17.3412 11.6052 17.3412 11.3281C17.3412 11.0511 17.1167 10.8265 16.8396 10.8265H16.5057V10.5915C16.5057 10.3145 16.2811 10.0898 16.004 10.0898C15.7271 10.0898 15.5024 10.3145 15.5024 10.5915V10.9245C15.013 11.1234 14.667 11.6036 14.667 12.1636C14.667 12.9009 15.2668 13.5008 16.004 13.5008C16.1882 13.5008 16.338 13.6506 16.338 13.8347C16.338 14.0189 16.1882 14.1686 16.004 14.1686Z" fill="#003366"/>
</svg>
