<svg width="14" height="14" viewBox="0 0 14 14" fill="none" xmlns="http://www.w3.org/2000/svg">
<g id="vuesax/linear/clock">
<g id="clock">
<g id="Vector">
<path d="M12.5554 7.00038C12.5554 10.067 10.0666 12.5559 6.99989 12.5559C3.93322 12.5559 1.44434 10.067 1.44434 7.00038C1.44434 3.93371 3.93322 1.44482 6.99989 1.44482C10.0666 1.44482 12.5554 3.93371 12.5554 7.00038Z" stroke="#F7F7F9" stroke-width="1.2" stroke-linecap="round" stroke-linejoin="round"/>
<path d="M12.5554 7.00038C12.5554 10.067 10.0666 12.5559 6.99989 12.5559C3.93322 12.5559 1.44434 10.067 1.44434 7.00038C1.44434 3.93371 3.93322 1.44482 6.99989 1.44482C10.0666 1.44482 12.5554 3.93371 12.5554 7.00038Z" stroke="#6B7785" stroke-width="1.2" stroke-linecap="round" stroke-linejoin="round"/>
</g>
<g id="Vector_2">
<path d="M9.06061 8.76697L7.33839 7.73919C7.03839 7.56142 6.79395 7.13364 6.79395 6.78364V4.50586" stroke="#F7F7F9" stroke-width="1.2" stroke-linecap="round" stroke-linejoin="round"/>
<path d="M9.06061 8.76697L7.33839 7.73919C7.03839 7.56142 6.79395 7.13364 6.79395 6.78364V4.50586" stroke="#6B7785" stroke-width="1.2" stroke-linecap="round" stroke-linejoin="round"/>
</g>
</g>
</g>
</svg>
