<svg width="25" height="21" viewBox="0 0 25 21" fill="none" xmlns="http://www.w3.org/2000/svg">
<path d="M17.6226 19.002V17.002C17.6226 15.9411 17.2011 14.9237 16.451 14.1735C15.7008 13.4234 14.6834 13.002 13.6226 13.002H5.62256C4.56169 13.002 3.54428 13.4234 2.79413 14.1735C2.04399 14.9237 1.62256 15.9411 1.62256 17.002V19.002M23.6226 19.002V17.002C23.6219 16.1157 23.3269 15.2547 22.7839 14.5543C22.2409 13.8538 21.4807 13.3535 20.6226 13.132M16.6226 1.13195C17.483 1.35225 18.2456 1.85265 18.7902 2.55426C19.3348 3.25587 19.6304 4.11878 19.6304 5.00695C19.6304 5.89512 19.3348 6.75803 18.7902 7.45964C18.2456 8.16125 17.483 8.66165 16.6226 8.88195M13.6226 5.00195C13.6226 7.21109 11.8317 9.00195 9.62256 9.00195C7.41342 9.00195 5.62256 7.21109 5.62256 5.00195C5.62256 2.79281 7.41342 1.00195 9.62256 1.00195C11.8317 1.00195 13.6226 2.79281 13.6226 5.00195Z" stroke="#667085" stroke-width="2" stroke-linecap="round" stroke-linejoin="round"/>
</svg>
