<svg width="19" height="19" viewBox="0 0 19 19" fill="none" xmlns="http://www.w3.org/2000/svg">
<g id="Group">
<path id="Vector" d="M6.91634 3.5835V3.5835C4.2497 3.5835 2.91637 3.5835 2.05624 4.37166C1.99189 4.43063 1.93014 4.49238 1.87118 4.55673C1.08301 5.41686 1.08301 6.75018 1.08301 9.41683V11.7502C1.08301 14.5786 1.08301 15.9928 1.96169 16.8715C2.84037 17.7502 4.25458 17.7502 7.08301 17.7502H9.41634C12.083 17.7502 13.4163 17.7502 14.2764 16.962C14.3408 16.903 14.4025 16.8413 14.4615 16.7769C15.2497 15.9168 15.2497 14.5835 15.2497 11.9168V11.9168" stroke="#101828" stroke-width="1.5" stroke-miterlimit="10" stroke-linecap="round" stroke-linejoin="round"/>
<path id="Vector_2" d="M8.58333 12.7502L5.25 13.5835L6.08333 10.2502L15.25 1.0835L17.75 3.5835L8.58333 12.7502Z" stroke="#101828" stroke-width="1.5" stroke-miterlimit="10" stroke-linecap="round" stroke-linejoin="round"/>
</g>
</svg>
