<svg width="18" height="18" viewBox="0 0 18 18" fill="none" xmlns="http://www.w3.org/2000/svg">
<path d="M10.4417 16.4993C10.2952 16.7519 10.0849 16.9616 9.83185 17.1073C9.57884 17.253 9.29198 17.3297 9 17.3297C8.70802 17.3297 8.42116 17.253 8.16814 17.1073C7.91513 16.9616 7.70484 16.7519 7.55833 16.4993M14 5.66602C14 4.33993 13.4732 3.06816 12.5355 2.13048C11.5979 1.1928 10.3261 0.666016 9 0.666016C7.67392 0.666016 6.40215 1.1928 5.46447 2.13048C4.52678 3.06816 4 4.33993 4 5.66602C4 11.4993 1.5 13.166 1.5 13.166H16.5C16.5 13.166 14 11.4993 14 5.66602Z" stroke="#101828" stroke-width="1.3" stroke-linecap="round" stroke-linejoin="round"/>
</svg>
