<svg width="18" height="18" viewBox="0 0 18 18" fill="none" xmlns="http://www.w3.org/2000/svg">
<path d="M4.83333 8.16602V4.83268C4.83333 3.72761 5.27232 2.66781 6.05372 1.8864C6.83512 1.105 7.89493 0.666016 9 0.666016C10.1051 0.666016 11.1649 1.105 11.9463 1.8864C12.7277 2.66781 13.1667 3.72761 13.1667 4.83268V8.16602M3.16667 8.16602H14.8333C15.7538 8.16602 16.5 8.91221 16.5 9.83268V15.666C16.5 16.5865 15.7538 17.3327 14.8333 17.3327H3.16667C2.24619 17.3327 1.5 16.5865 1.5 15.666V9.83268C1.5 8.91221 2.24619 8.16602 3.16667 8.16602Z" stroke="#101828" stroke-width="1.3" stroke-linecap="round" stroke-linejoin="round"/>
</svg>
