<svg width="20" height="21" viewBox="0 0 20 21" fill="none" xmlns="http://www.w3.org/2000/svg">
<path d="M7.91659 5.08301V5.08301C5.24994 5.08301 3.91662 5.08301 3.05648 5.87118C2.99213 5.93014 2.93039 5.99189 2.87142 6.05624C2.08325 6.91637 2.08325 8.24969 2.08325 10.9163V13.2497C2.08325 16.0781 2.08325 17.4923 2.96193 18.371C3.84061 19.2497 5.25482 19.2497 8.08325 19.2497H10.4166C13.0832 19.2497 14.4166 19.2497 15.2767 18.4615C15.341 18.4025 15.4028 18.3408 15.4618 18.2764C16.2499 17.4163 16.2499 16.083 16.2499 13.4163V13.4163" stroke="#003366" stroke-width="1.5" stroke-miterlimit="10" stroke-linecap="round" stroke-linejoin="round"/>
<path d="M9.58333 14.2497L6.25 15.083L7.08333 11.7497L16.25 2.58301L18.75 5.08301L9.58333 14.2497Z" stroke="#003366" stroke-width="1.5" stroke-miterlimit="10" stroke-linecap="round" stroke-linejoin="round"/>
</svg>
