<svg width="19" height="20" viewBox="0 0 19 20" fill="none" xmlns="http://www.w3.org/2000/svg">
<path d="M17.1752 13.242C16.645 14.4957 15.8158 15.6005 14.7601 16.4597C13.7043 17.319 12.4541 17.9065 11.1189 18.171C9.78359 18.4354 8.40386 18.3688 7.1003 17.9768C5.79673 17.5849 4.60903 16.8796 3.64102 15.9225C2.67302 14.9655 1.95419 13.786 1.54737 12.487C1.14055 11.1879 1.05814 9.80907 1.30734 8.47085C1.55653 7.13264 2.12975 5.87585 2.97688 4.81035C3.824 3.74485 4.91924 2.90309 6.16684 2.35866M17.8335 10.0003C17.8335 8.90598 17.618 7.82234 17.1992 6.8113C16.7804 5.80025 16.1666 4.88159 15.3927 4.10777C14.6189 3.33395 13.7002 2.72012 12.6892 2.30133C11.6782 1.88254 10.5945 1.66699 9.50017 1.66699V10.0003H17.8335Z" stroke="#667085" stroke-width="2" stroke-linecap="round" stroke-linejoin="round"/>
</svg>
