<svg width="18" height="20" viewBox="0 0 18 20" fill="none" xmlns="http://www.w3.org/2000/svg">
<path d="M1.5 5.00033L4 1.66699H14L16.5 5.00033M1.5 5.00033V16.667C1.5 17.109 1.67559 17.5329 1.98816 17.8455C2.30072 18.1581 2.72464 18.3337 3.16667 18.3337H14.8333C15.2754 18.3337 15.6993 18.1581 16.0118 17.8455C16.3244 17.5329 16.5 17.109 16.5 16.667V5.00033M1.5 5.00033H16.5M12.3333 8.33366C12.3333 9.21771 11.9821 10.0656 11.357 10.6907C10.7319 11.3158 9.88405 11.667 9 11.667C8.11594 11.667 7.2681 11.3158 6.64298 10.6907C6.01786 10.0656 5.66667 9.21771 5.66667 8.33366" stroke="#667085" stroke-width="2" stroke-linecap="round" stroke-linejoin="round"/>
</svg>
