<svg width="20" height="16" viewBox="0 0 20 16" fill="none" xmlns="http://www.w3.org/2000/svg">
<rect width="20" height="16" rx="4" fill="#F5AA29"/>
<g clip-path="url(#clip0_412_133659)">
<g clip-path="url(#clip1_412_133659)">
<path d="M11.3354 3.83325H8.66649C8.03726 3.83325 7.52539 4.34518 7.52539 4.97435V11.0255C7.52539 11.6547 8.03726 12.1666 8.66649 12.1666H11.3354C11.9646 12.1666 12.4765 11.6547 12.4765 11.0255V4.97435C12.4765 4.34518 11.9646 3.83325 11.3354 3.83325ZM8.66649 11.6649C8.31389 11.6649 8.02702 11.3781 8.02702 11.0255V10.8553H11.9749V11.0255C11.9749 11.3781 11.688 11.6649 11.3354 11.6649H8.66649ZM11.3354 4.33488C11.688 4.33488 11.9749 4.62175 11.9749 4.97435V5.14449H8.02702V4.97435C8.02702 4.62175 8.31389 4.33488 8.66649 4.33488H11.3354ZM11.9749 5.64612V10.3537H8.02702V5.64612H11.9749Z" fill="#003366"/>
<path d="M10.0015 8.58432H9.58376C9.44529 8.58432 9.33301 8.6966 9.33301 8.83514C9.33301 8.97361 9.44529 9.08595 9.58376 9.08595H9.75072V9.20345C9.75072 9.34192 9.86306 9.45426 10.0015 9.45426C10.1401 9.45426 10.2523 9.34192 10.2523 9.20345V9.03694C10.4971 8.9375 10.6701 8.69736 10.6701 8.41737C10.6701 8.04874 10.3702 7.74878 10.0015 7.74878C9.90947 7.74878 9.83458 7.67388 9.83458 7.58182C9.83458 7.48976 9.90947 7.41486 10.0015 7.41486H10.4193C10.5578 7.41486 10.6701 7.30258 10.6701 7.16405C10.6701 7.02557 10.5578 6.91323 10.4193 6.91323H10.2523V6.79574C10.2523 6.65726 10.1401 6.54492 10.0015 6.54492C9.86306 6.54492 9.75072 6.65726 9.75072 6.79574V6.96225C9.506 7.06169 9.33301 7.30182 9.33301 7.58182C9.33301 7.95045 9.63291 8.25041 10.0015 8.25041C10.0936 8.25041 10.1685 8.3253 10.1685 8.41737C10.1685 8.50943 10.0936 8.58432 10.0015 8.58432Z" fill="#003366"/>
</g>
</g>
<defs>
<clipPath id="clip0_412_133659">
<rect width="10" height="10" fill="white" transform="translate(5 3)"/>
</clipPath>
<clipPath id="clip1_412_133659">
<rect width="8.33333" height="9.16667" fill="white" transform="translate(5.83301 3.41663)"/>
</clipPath>
</defs>
</svg>
