<svg width="21" height="21" viewBox="0 0 21 21" fill="none" xmlns="http://www.w3.org/2000/svg">
<path d="M18.9336 5.64178H13.9336" stroke="#101828" stroke-width="1.5" stroke-miterlimit="10" stroke-linecap="round" stroke-linejoin="round"/>
<path d="M5.59896 5.64178H2.26562" stroke="black" stroke-width="1.5" stroke-miterlimit="10" stroke-linecap="round" stroke-linejoin="round"/>
<path d="M8.93229 8.55843C10.5431 8.55843 11.849 7.25259 11.849 5.64176C11.849 4.03093 10.5431 2.7251 8.93229 2.7251C7.32146 2.7251 6.01562 4.03093 6.01562 5.64176C6.01562 7.25259 7.32146 8.55843 8.93229 8.55843Z" stroke="black" stroke-width="1.5" stroke-miterlimit="10" stroke-linecap="round" stroke-linejoin="round"/>
<path d="M18.9329 14.8084H15.5996" stroke="#101828" stroke-width="1.5" stroke-miterlimit="10" stroke-linecap="round" stroke-linejoin="round"/>
<path d="M7.26562 14.8084H2.26562" stroke="#101828" stroke-width="1.5" stroke-miterlimit="10" stroke-linecap="round" stroke-linejoin="round"/>
<path d="M12.2663 17.7251C13.8771 17.7251 15.1829 16.4193 15.1829 14.8085C15.1829 13.1976 13.8771 11.8918 12.2663 11.8918C10.6554 11.8918 9.34961 13.1976 9.34961 14.8085C9.34961 16.4193 10.6554 17.7251 12.2663 17.7251Z" stroke="#101828" stroke-width="1.5" stroke-miterlimit="10" stroke-linecap="round" stroke-linejoin="round"/>
</svg>
