<svg width="27" height="26" viewBox="0 0 27 26" fill="none" xmlns="http://www.w3.org/2000/svg">
<path d="M11.5403 1.547C12.2792 0.0797572 14.3739 0.0797586 15.1128 1.547L17.6548 6.59471C17.9493 7.17933 18.5111 7.58288 19.1592 7.67516L24.7757 8.47497C26.4287 8.71036 27.0826 10.7479 25.8753 11.9012L21.8631 15.7339C21.3802 16.1952 21.1594 16.8671 21.2745 17.5249L22.2287 22.9769C22.5137 24.6053 20.8122 25.8567 19.3426 25.0996L14.2425 22.4719C13.6678 22.1758 12.9853 22.1758 12.4105 22.4719L7.31044 25.0996C5.84086 25.8567 4.13939 24.6053 4.42438 22.9769L5.37856 17.5249C5.49369 16.8671 5.27289 16.1952 4.79 15.7339L0.777797 11.9012C-0.429524 10.7479 0.224353 8.71036 1.87733 8.47498L7.49391 7.67516C8.14194 7.58288 8.70381 7.17933 8.99822 6.59471L11.5403 1.547Z" fill="#F5AA29" fill-opacity="0.44"/>
</svg>
