<svg width="41" height="40" viewBox="0 0 41 40" fill="none" xmlns="http://www.w3.org/2000/svg">
<path d="M17.8098 5.45096C18.9102 3.22122 22.0898 3.22122 23.1902 5.45096L25.6798 10.4955C26.1168 11.3809 26.9615 11.9946 27.9387 12.1366L33.5056 12.9456C35.9663 13.3031 36.9488 16.327 35.1683 18.0626L31.14 21.9893C30.4329 22.6785 30.1103 23.6715 30.2772 24.6447L31.2281 30.1892C31.6485 32.6399 29.0762 34.5088 26.8753 33.3517L21.896 30.7339C21.0221 30.2745 19.9779 30.2745 19.104 30.7339L14.1247 33.3517C11.9238 34.5088 9.35153 32.6399 9.77186 30.1892L10.7228 24.6447C10.8897 23.6715 10.5671 22.6785 9.86003 21.9893L5.83172 18.0626C4.05117 16.327 5.0337 13.3031 7.49436 12.9456L13.0613 12.1366C14.0385 11.9946 14.8832 11.3809 15.3202 10.4955L17.8098 5.45096Z" fill="#98E39F"/>
<path d="M18.7582 18.6182V17.0702H21.6502V25.8182H19.9222V18.6182H18.7582Z" fill="black"/>
</svg>
