<svg width="40" height="40" viewBox="0 0 40 40" fill="none" xmlns="http://www.w3.org/2000/svg">
<path d="M17.3098 5.45096C18.4102 3.22122 21.5898 3.22122 22.6902 5.45096L25.1798 10.4955C25.6168 11.3809 26.4615 11.9946 27.4387 12.1366L33.0056 12.9456C35.4663 13.3031 36.4488 16.327 34.6683 18.0626L30.64 21.9893C29.9329 22.6785 29.6103 23.6715 29.7772 24.6447L30.7281 30.1892C31.1485 32.6399 28.5762 34.5088 26.3753 33.3517L21.396 30.7339C20.5221 30.2745 19.4779 30.2745 18.604 30.7339L13.6247 33.3517C11.4238 34.5088 8.85153 32.6399 9.27186 30.1892L10.2228 24.6447C10.3897 23.6715 10.0671 22.6785 9.36003 21.9893L5.33172 18.0626C3.55117 16.327 4.5337 13.3031 6.99436 12.9456L12.5613 12.1366C13.5385 11.9946 14.3832 11.3809 14.8202 10.4955L17.3098 5.45096Z" fill="#F9B087"/>
<path d="M17.0682 19.3742C17.1082 18.5742 17.3882 17.9582 17.9082 17.5262C18.4362 17.0862 19.1282 16.8662 19.9842 16.8662C20.5682 16.8662 21.0682 16.9702 21.4842 17.1782C21.9002 17.3782 22.2122 17.6542 22.4202 18.0062C22.6362 18.3502 22.7442 18.7422 22.7442 19.1822C22.7442 19.6862 22.6122 20.1142 22.3482 20.4662C22.0922 20.8102 21.7842 21.0422 21.4242 21.1622V21.2102C21.8882 21.3542 22.2482 21.6102 22.5042 21.9782C22.7682 22.3462 22.9002 22.8182 22.9002 23.3942C22.9002 23.8742 22.7882 24.3022 22.5642 24.6782C22.3482 25.0542 22.0242 25.3502 21.5922 25.5662C21.1682 25.7742 20.6562 25.8782 20.0562 25.8782C19.1522 25.8782 18.4162 25.6502 17.8482 25.1942C17.2802 24.7382 16.9802 24.0662 16.9482 23.1782H18.5802C18.5962 23.5702 18.7282 23.8862 18.9762 24.1262C19.2322 24.3582 19.5802 24.4742 20.0202 24.4742C20.4282 24.4742 20.7402 24.3622 20.9562 24.1382C21.1802 23.9062 21.2922 23.6102 21.2922 23.2502C21.2922 22.7702 21.1402 22.4262 20.8362 22.2182C20.5322 22.0102 20.0602 21.9062 19.4202 21.9062H19.0722V20.5262H19.4202C20.5562 20.5262 21.1242 20.1462 21.1242 19.3862C21.1242 19.0422 21.0202 18.7742 20.8122 18.5822C20.6122 18.3902 20.3202 18.2942 19.9362 18.2942C19.5602 18.2942 19.2682 18.3982 19.0602 18.6062C18.8602 18.8062 18.7442 19.0622 18.7122 19.3742H17.0682Z" fill="black"/>
</svg>
