<svg width="21" height="19" viewBox="0 0 21 19" fill="none" xmlns="http://www.w3.org/2000/svg">
<path d="M8.75144 1.14931C9.51332 -0.222902 11.4867 -0.222904 12.2486 1.14931L13.9771 4.26263C14.2855 4.81805 14.8394 5.19393 15.4695 5.27531L18.912 5.71996C20.6251 5.94123 21.271 8.08389 19.9655 9.21502L17.7926 11.0977C17.2524 11.5658 17.0031 12.2864 17.1385 12.9882L17.6919 15.8567C18.0014 17.4607 16.3614 18.7391 14.8814 18.0475L11.3467 16.3957C10.8101 16.1449 10.1899 16.1449 9.65326 16.3957L6.11858 18.0475C4.63857 18.7391 2.99856 17.4607 3.30806 15.8567L3.86154 12.9882C3.99695 12.2864 3.74759 11.5658 3.20744 11.0978L1.03452 9.21502C-0.27095 8.08389 0.37489 5.94123 2.088 5.71996L5.53049 5.27531C6.16055 5.19393 6.71448 4.81805 7.02286 4.26263L8.75144 1.14931Z" fill="#FFB800"/>
</svg>
