<svg width="40" height="40" viewBox="0 0 40 40" fill="none" xmlns="http://www.w3.org/2000/svg">
<path d="M17.3098 5.45096C18.4102 3.22122 21.5898 3.22122 22.6902 5.45096L25.1798 10.4955C25.6168 11.3809 26.4615 11.9946 27.4387 12.1366L33.0056 12.9456C35.4663 13.3031 36.4488 16.327 34.6683 18.0626L30.64 21.9893C29.9329 22.6785 29.6103 23.6715 29.7772 24.6447L30.7281 30.1892C31.1485 32.6399 28.5762 34.5088 26.3753 33.3517L21.396 30.7339C20.5221 30.2745 19.4779 30.2745 18.604 30.7339L13.6247 33.3517C11.4238 34.5088 8.85153 32.6399 9.27186 30.1892L10.2228 24.6447C10.3897 23.6715 10.0671 22.6785 9.36003 21.9893L5.33172 18.0626C3.55117 16.327 4.5337 13.3031 6.99436 12.9456L12.5613 12.1366C13.5385 11.9946 14.3832 11.3809 14.8202 10.4955L17.3098 5.45096Z" fill="#FFB800" fill-opacity="0.64"/>
<path d="M17.7187 23.9222C18.4867 23.2822 19.0987 22.7502 19.5547 22.3262C20.0107 21.8942 20.3907 21.4462 20.6947 20.9822C20.9987 20.5182 21.1507 20.0622 21.1507 19.6142C21.1507 19.2062 21.0547 18.8862 20.8627 18.6542C20.6707 18.4222 20.3747 18.3062 19.9747 18.3062C19.5747 18.3062 19.2667 18.4422 19.0507 18.7142C18.8347 18.9782 18.7227 19.3422 18.7147 19.8062H17.0827C17.1147 18.8462 17.3987 18.1182 17.9347 17.6222C18.4787 17.1262 19.1667 16.8782 19.9987 16.8782C20.9107 16.8782 21.6107 17.1222 22.0987 17.6102C22.5867 18.0902 22.8307 18.7262 22.8307 19.5182C22.8307 20.1422 22.6627 20.7382 22.3267 21.3062C21.9907 21.8742 21.6067 22.3702 21.1747 22.7942C20.7427 23.2102 20.1787 23.7142 19.4827 24.3062H23.0227V25.6982H17.0947V24.4502L17.7187 23.9222Z" fill="black"/>
</svg>
