<svg width="21" height="20" viewBox="0 0 21 20" fill="none" xmlns="http://www.w3.org/2000/svg">
<g id="add">
<mask id="mask0_2388_275872" style="mask-type:alpha" maskUnits="userSpaceOnUse" x="0" y="0" width="21" height="20">
<rect id="Bounding box" x="0.5" width="20" height="20" fill="#D9D9D9"/>
</mask>
<g mask="url(#mask0_2388_275872)">
<path id="add_2" d="M10.5 15.625C10.3193 15.625 10.163 15.559 10.031 15.427C9.899 15.295 9.833 15.1387 9.833 14.958V10.667H5.542C5.36133 10.667 5.205 10.601 5.073 10.469C4.941 10.337 4.875 10.1807 4.875 10C4.875 9.81933 4.941 9.663 5.073 9.531C5.205 9.399 5.36133 9.333 5.542 9.333H9.833V5.042C9.833 4.86133 9.899 4.705 10.031 4.573C10.163 4.441 10.3193 4.375 10.5 4.375C10.6807 4.375 10.837 4.441 10.969 4.573C11.101 4.705 11.167 4.86133 11.167 5.042V9.333H15.458C15.6387 9.333 15.795 9.399 15.927 9.531C16.059 9.663 16.125 9.81933 16.125 10C16.125 10.1807 16.059 10.337 15.927 10.469C15.795 10.601 15.6387 10.667 15.458 10.667H11.167V14.958C11.167 15.1387 11.101 15.295 10.969 15.427C10.837 15.559 10.6807 15.625 10.5 15.625Z" fill="#1C1B1F"/>
</g>
</g>
</svg>
