<svg width="21" height="18" viewBox="0 0 21 18" fill="none" xmlns="http://www.w3.org/2000/svg">
<path d="M13.8335 12.3333V1.5H1.3335V12.3333H13.8335ZM13.8335 12.3333H19.6668V8.16667L17.1668 5.66667H13.8335V12.3333ZM7.16683 14.4167C7.16683 15.5673 6.23409 16.5 5.0835 16.5C3.9329 16.5 3.00016 15.5673 3.00016 14.4167C3.00016 13.2661 3.9329 12.3333 5.0835 12.3333C6.23409 12.3333 7.16683 13.2661 7.16683 14.4167ZM18.0002 14.4167C18.0002 15.5673 17.0674 16.5 15.9168 16.5C14.7662 16.5 13.8335 15.5673 13.8335 14.4167C13.8335 13.2661 14.7662 12.3333 15.9168 12.3333C17.0674 12.3333 18.0002 13.2661 18.0002 14.4167Z" stroke="#667085" stroke-width="2" stroke-linecap="round" stroke-linejoin="round"/>
</svg>
