<svg width="20" height="25" viewBox="0 0 20 25" fill="none" xmlns="http://www.w3.org/2000/svg">
<path d="M11.4417 21.6126C11.2952 21.8652 11.0849 22.0748 10.8319 22.2206C10.5788 22.3663 10.292 22.443 10 22.443C9.70802 22.443 9.42116 22.3663 9.16814 22.2206C8.91513 22.0748 8.70484 21.8652 8.55833 21.6126M15 10.7793C15 9.45321 14.4732 8.18144 13.5355 7.24376C12.5979 6.30608 11.3261 5.7793 10 5.7793C8.67392 5.7793 7.40215 6.30608 6.46447 7.24376C5.52678 8.18144 5 9.45321 5 10.7793C5 16.6126 2.5 18.2793 2.5 18.2793H17.5C17.5 18.2793 15 16.6126 15 10.7793Z" stroke="#101828" stroke-width="1.5" stroke-linecap="round" stroke-linejoin="round"/>
<rect x="9.25" y="1.25" width="9.5" height="9.5" rx="4.75" fill="#F63838"/>
<rect x="9.25" y="1.25" width="9.5" height="9.5" rx="4.75" stroke="white" stroke-width="1.5"/>
</svg>
