<svg width="21" height="23" viewBox="0 0 21 23" fill="none" xmlns="http://www.w3.org/2000/svg">
<path d="M15.1228 8.3999L6.1228 3.2099M1.8928 5.9599L10.6228 11.0099L19.3528 5.9599M10.6228 21.0799V10.9999M19.6228 14.9999V6.9999C19.6224 6.64918 19.5299 6.30471 19.3543 6.00106C19.1788 5.69742 18.9265 5.44526 18.6228 5.2699L11.6228 1.2699C11.3188 1.09437 10.9739 1.00195 10.6228 1.00195C10.2717 1.00195 9.92684 1.09437 9.6228 1.2699L2.6228 5.2699C2.31907 5.44526 2.06678 5.69742 1.89126 6.00106C1.71575 6.30471 1.62316 6.64918 1.6228 6.9999V14.9999C1.62316 15.3506 1.71575 15.6951 1.89126 15.9987C2.06678 16.3024 2.31907 16.5545 2.6228 16.7299L9.6228 20.7299C9.92684 20.9054 10.2717 20.9979 10.6228 20.9979C10.9739 20.9979 11.3188 20.9054 11.6228 20.7299L18.6228 16.7299C18.9265 16.5545 19.1788 16.3024 19.3543 15.9987C19.5299 15.6951 19.6224 15.3506 19.6228 14.9999Z" stroke="#667085" stroke-width="2" stroke-linecap="round" stroke-linejoin="round"/>
</svg>
