<svg width="33" height="191" viewBox="0 0 33 191" fill="none" xmlns="http://www.w3.org/2000/svg">
<circle cx="16.5" cy="16" r="16" transform="rotate(-90 16.5 16)" fill="#F5AA29"/>
<path d="M23.1666 15.3867V16.0001C23.1658 17.4377 22.7003 18.8365 21.8395 19.988C20.9787 21.1394 19.7688 21.9817 18.3902 22.3893C17.0115 22.797 15.5381 22.748 14.1896 22.2498C12.841 21.7516 11.6897 20.8308 10.9072 19.6248C10.1248 18.4188 9.75311 16.9921 9.8477 15.5576C9.94229 14.1231 10.4981 12.7576 11.4321 11.6648C12.3662 10.572 13.6284 9.81033 15.0307 9.4935C16.433 9.17668 17.9001 9.32163 19.2133 9.90674M23.1666 10.6667L16.4999 17.3401L14.4999 15.3401" stroke="#101828" stroke-width="1.5" stroke-linecap="round" stroke-linejoin="round"/>
<circle cx="16.5" cy="92" r="16" transform="rotate(-90 16.5 92)" fill="#DEDEDE"/>
<g clip-path="url(#clip0_412_132500)">
<path d="M19.1667 94.6667V86H9.16675V94.6667H19.1667ZM19.1667 94.6667H23.8334V91.3333L21.8334 89.3333H19.1667V94.6667ZM13.8334 96.3333C13.8334 97.2538 13.0872 98 12.1667 98C11.2463 98 10.5001 97.2538 10.5001 96.3333C10.5001 95.4129 11.2463 94.6667 12.1667 94.6667C13.0872 94.6667 13.8334 95.4129 13.8334 96.3333ZM22.5001 96.3333C22.5001 97.2538 21.7539 98 20.8334 98C19.9129 98 19.1667 97.2538 19.1667 96.3333C19.1667 95.4129 19.9129 94.6667 20.8334 94.6667C21.7539 94.6667 22.5001 95.4129 22.5001 96.3333Z" stroke="white" stroke-linecap="round" stroke-linejoin="round"/>
</g>
<circle cx="16.5" cy="168" r="16" transform="rotate(-90 16.5 168)" fill="#DEDEDE"/>
<path d="M19.5 166.267L13.5 162.807M10.68 164.64L16.5 168.007L22.32 164.64M16.5 174.72V168M22.5 170.667V165.333C22.4998 165.1 22.438 164.87 22.321 164.667C22.204 164.465 22.0358 164.297 21.8333 164.18L17.1667 161.513C16.964 161.396 16.734 161.335 16.5 161.335C16.266 161.335 16.036 161.396 15.8333 161.513L11.1667 164.18C10.9642 164.297 10.796 164.465 10.679 164.667C10.562 164.87 10.5002 165.1 10.5 165.333V170.667C10.5002 170.901 10.562 171.13 10.679 171.333C10.796 171.535 10.9642 171.703 11.1667 171.82L15.8333 174.487C16.036 174.604 16.266 174.665 16.5 174.665C16.734 174.665 16.964 174.604 17.1667 174.487L21.8333 171.82C22.0358 171.703 22.204 171.535 22.321 171.333C22.438 171.13 22.4998 170.901 22.5 170.667Z" stroke="white" stroke-linecap="round" stroke-linejoin="round"/>
<rect opacity="0.2" x="15.5" y="76" width="44" height="2" transform="rotate(-90 15.5 76)" fill="#667085"/>
<rect opacity="0.2" x="15.5" y="152" width="44" height="2" transform="rotate(-90 15.5 152)" fill="#667085"/>
<defs>
<clipPath id="clip0_412_132500">
<rect width="16" height="16" fill="white" transform="translate(8.5 84)"/>
</clipPath>
</defs>
</svg>
