<svg width="18" height="20" viewBox="0 0 18 20" fill="none" xmlns="http://www.w3.org/2000/svg">
<g id="mobile 1">
<path id="Vector" d="M9.00307 11.1686H8.16752C7.89057 11.1686 7.66602 11.3932 7.66602 11.6703C7.66602 11.9472 7.89057 12.1719 8.16752 12.1719H8.50143V12.4069C8.50143 12.6838 8.72612 12.9085 9.00307 12.9085C9.28014 12.9085 9.5047 12.6838 9.5047 12.4069V12.0739C9.99413 11.875 10.3402 11.3947 10.3402 10.8347C10.3402 10.0975 9.74032 9.49755 9.00307 9.49755C8.81894 9.49755 8.66915 9.34776 8.66915 9.16364C8.66915 8.97952 8.81894 8.82973 9.00307 8.82973H9.83861C10.1157 8.82973 10.3402 8.60517 10.3402 8.32809C10.3402 8.05115 10.1157 7.82646 9.83861 7.82646H9.5047V7.59148C9.5047 7.31453 9.28014 7.08984 9.00307 7.08984C8.72612 7.08984 8.50143 7.31453 8.50143 7.59148V7.9245C8.01201 8.12337 7.66602 8.60364 7.66602 9.16364C7.66602 9.90089 8.26581 10.5008 9.00307 10.5008C9.18719 10.5008 9.33698 10.6506 9.33698 10.8347C9.33698 11.0189 9.18719 11.1686 9.00307 11.1686Z" fill="#003366"/>
</g>
</svg>
