<svg width="24" height="25" viewBox="0 0 24 25" fill="none" xmlns="http://www.w3.org/2000/svg">
<g id="Frame 16203">
<g id="shopping-cart 1">
<g id="Group">
<g id="Group_2">
<g id="Group_3">
<path id="Vector" d="M8.38093 18.1621C7.22776 18.1621 6.29297 19.0969 6.29297 20.2501C6.29297 21.4032 7.2278 22.338 8.38093 22.338C9.53411 22.338 10.4689 21.4032 10.4689 20.2501C10.4689 19.0969 9.53411 18.1621 8.38093 18.1621ZM8.38093 21.4101C7.74029 21.4101 7.22096 20.8908 7.22096 20.2501C7.22096 19.6095 7.74029 19.0901 8.38093 19.0901C9.02158 19.0901 9.5409 19.6095 9.5409 20.2501C9.54095 20.8908 9.02158 21.4101 8.38093 21.4101Z" fill="black" stroke="black" stroke-width="0.2"/>
<path id="Vector_2" d="M17.1973 18.1621C16.0442 18.1621 15.1094 19.0969 15.1094 20.2501C15.1094 21.4032 16.0442 22.338 17.1973 22.338C18.3505 22.338 19.2853 21.4032 19.2853 20.2501C19.2853 19.0969 18.3505 18.1621 17.1973 18.1621ZM17.1973 21.4101C16.5567 21.4101 16.0374 20.8908 16.0374 20.2501C16.0374 19.6095 16.5567 19.0901 17.1973 19.0901C17.838 19.0901 18.3573 19.6095 18.3573 20.2501C18.3574 20.8908 17.838 21.4101 17.1973 21.4101Z" fill="black" stroke="black" stroke-width="0.2"/>
<path id="Vector_3" d="M21.9054 5.98186C21.8088 5.8763 21.6766 5.81023 21.5342 5.79624L6.43117 5.58744L6.01358 4.31144C5.71939 3.45845 4.92062 2.88259 4.01838 2.87305H2.464C2.20773 2.87305 2 3.08078 2 3.33704C2 3.59331 2.20773 3.80104 2.464 3.80104H4.01838C4.52287 3.81219 4.96711 4.13613 5.13199 4.61305L8.07836 13.4986L7.84639 14.0322C7.58763 14.6994 7.66534 15.4504 8.05518 16.0505C8.44129 16.64 9.09086 17.0037 9.79518 17.0249H18.8199C19.0762 17.0249 19.2839 16.8172 19.2839 16.5609C19.2839 16.3047 19.0762 16.0969 18.8199 16.0969H9.79514C9.3974 16.087 9.03127 15.8777 8.82074 15.5401C8.61257 15.2066 8.5698 14.7958 8.70475 14.4265L8.89037 14.0089L18.6575 12.9881C19.7303 12.87 20.6129 12.0897 20.8615 11.0393L21.9751 6.37618C22.0253 6.2419 21.9986 6.09087 21.9054 5.98186ZM19.9567 10.8306C19.806 11.5067 19.232 12.0054 18.5415 12.0602L8.89037 13.0578L6.73278 6.51544L20.9542 6.72423L19.9567 10.8306Z" fill="black" stroke="black" stroke-width="0.4"/>
</g>
</g>
</g>
</g>
</g>
</svg>
