<svg width="24" height="25" viewBox="0 0 24 25" fill="none" xmlns="http://www.w3.org/2000/svg">
<path d="M21.2104 16.4955C20.5742 18 19.5792 19.3257 18.3123 20.3568C17.0454 21.3879 15.5452 22.0929 13.9428 22.4102C12.3405 22.7276 10.6848 22.6476 9.12055 22.1773C7.55627 21.7069 6.13103 20.8605 4.96942 19.7121C3.80782 18.5637 2.94522 17.1482 2.45704 15.5894C1.96886 14.0306 1.86996 12.376 2.169 10.7701C2.46804 9.16425 3.1559 7.6561 4.17245 6.3775C5.189 5.0989 6.50329 4.08879 8.0004 3.43547M22.0004 12.6055C22.0004 11.2923 21.7417 9.99189 21.2392 8.77863C20.7367 7.56538 20.0001 6.46299 19.0715 5.5344C18.1429 4.60582 17.0405 3.86922 15.8272 3.36667C14.614 2.86413 13.3136 2.60547 12.0004 2.60547V12.6055H22.0004Z" stroke="black" stroke-width="1.3" stroke-linecap="round" stroke-linejoin="round"/>
</svg>
