<svg width="24" height="25" viewBox="0 0 24 25" fill="none" xmlns="http://www.w3.org/2000/svg">
<g id="Frame 16206">
<path id="Home" d="M18.0438 22.6055H16.0829C15.7561 22.6055 15.4427 22.4759 15.2124 22.2456C14.9821 22.0153 14.8539 21.7033 14.8563 21.3788V18.3211C14.8563 17.9463 14.7063 17.5868 14.4393 17.3217C14.1723 17.0567 13.8102 16.9078 13.4326 16.9078H10.5584C9.77217 16.9078 9.13478 17.5405 9.13478 18.3211L18.0438 22.6055ZM18.0438 22.6055C18.9596 22.6078 19.8388 22.2483 20.4872 21.6063C21.1356 20.9642 21.5 20.0924 21.5 19.1833V10.4723C21.5 9.73793 21.1721 9.04131 20.6046 8.57014L18.0438 22.6055ZM8.48478 18.3211V20.9092L8.46134 20.917L8.45793 21.383C8.45565 21.6954 8.19853 21.9555 7.87231 21.9555H5.95617C4.40189 21.9555 3.15 20.7059 3.15 19.1744V10.4806C3.16497 9.93437 3.42584 9.42198 3.86341 9.08528L3.86348 9.08537L3.87321 9.07759L10.3916 3.8599L10.4006 3.8527L10.4093 3.84519C11.298 3.08066 12.612 3.05688 13.5282 3.78912L13.5302 3.79067L20.1946 9.07456C20.6109 9.42278 20.85 9.93446 20.85 10.4723V19.1833C20.85 19.9182 20.5555 20.6239 20.0298 21.1444C19.504 21.665 18.7902 21.9574 18.0455 21.9555H18.0438H16.0829C15.9277 21.9555 15.7799 21.8939 15.672 21.786C15.5642 21.6783 15.5051 21.5333 15.5063 21.3836H15.5063V21.3788V18.3211C15.5063 17.7723 15.2866 17.247 14.8972 16.8604C14.508 16.474 13.9811 16.2578 13.4326 16.2578H10.5584C9.41766 16.2578 8.48478 17.1771 8.48478 18.3211Z" fill="#003366" stroke="#003366" stroke-width="1.3"/>
</g>
</svg>
