<svg width="25" height="25" viewBox="0 0 25 25" fill="none" xmlns="http://www.w3.org/2000/svg">
<g id="Frame 16206">
<g id="Group 13260">
<g id="Group 13259">
<path id="Vector" d="M20.3483 19.0984L19.4552 7.84383C19.3995 7.11875 18.7863 6.55074 18.0591 6.55074H16.2949V6.47145C16.2949 4.33973 14.5607 2.60547 12.4289 2.60547C10.2972 2.60547 8.56296 4.33973 8.56296 6.47145V6.55074H6.79883C6.0716 6.55074 5.45836 7.11871 5.40289 7.8423L4.50945 19.0999C4.44031 20.0012 4.753 20.8986 5.3673 21.5618C5.9816 22.225 6.85242 22.6055 7.75644 22.6055H17.1014C18.0054 22.6055 18.8762 22.2251 19.4906 21.5618C20.1049 20.8986 20.4175 20.0012 20.3483 19.0984ZM9.73445 6.47145C9.73445 4.9857 10.9432 3.77695 12.4289 3.77695C13.9146 3.77695 15.1234 4.98574 15.1234 6.47145V6.55074H9.73445V6.47145ZM18.6311 20.7658C18.2319 21.1967 17.6887 21.434 17.1014 21.434H7.75648C7.16914 21.434 6.62593 21.1967 6.22679 20.7658C5.82769 20.3349 5.63261 19.7751 5.67746 19.191L6.57082 7.9334C6.57988 7.81496 6.68004 7.72223 6.79883 7.72223H8.56296V9.165C8.56296 9.48848 8.82523 9.75074 9.14871 9.75074C9.47218 9.75074 9.73445 9.48848 9.73445 9.165V7.72223H15.1234V9.165C15.1234 9.48848 15.3857 9.75074 15.7092 9.75074C16.0327 9.75074 16.2949 9.48848 16.2949 9.165V7.72223H18.0591C18.1778 7.72223 18.278 7.815 18.2872 7.93496L19.1804 19.1895C19.2253 19.7751 19.0302 20.3349 18.6311 20.7658Z" fill="black"/>
</g>
<g id="Group">
<g id="Group_2">
<g id="Group_3">
<path id="Vector_2" d="M15.4984 11.8048C15.2327 11.539 14.8018 11.539 14.5362 11.8048L11.4978 14.8431L10.3295 13.6748C10.0639 13.4091 9.633 13.4091 9.36727 13.6748C9.10154 13.9405 9.10154 14.3713 9.36727 14.6371L11.0167 16.2865C11.1496 16.4194 11.3237 16.4859 11.4978 16.4859C11.6719 16.4859 11.8461 16.4194 11.9789 16.2865L15.4983 12.7671C15.7641 12.5013 15.7641 12.0705 15.4984 11.8048Z" fill="black"/>
</g>
</g>
</g>
</g>
</g>
</svg>
