<svg width="24" height="25" viewBox="0 0 24 25" fill="none" xmlns="http://www.w3.org/2000/svg">
<g id="Group">
<g id="Group_2">
<path id="Path" d="M18.3639 6.24151C21.8787 9.75623 21.8787 15.4547 18.3639 18.9694C14.8492 22.4841 9.15074 22.4841 5.63604 18.9694C2.12132 15.4547 2.12132 9.75621 5.63604 6.24151C9.15076 2.72679 14.8492 2.72679 18.3639 6.24151" stroke="black" stroke-width="1.3" stroke-linecap="round" stroke-linejoin="round"/>
<path id="Path_2" d="M13.9896 8.92937C15.0881 10.0279 15.0881 11.809 13.9896 12.9076C12.891 14.0061 11.1099 14.0061 10.0114 12.9076C8.91287 11.809 8.91287 10.0279 10.0114 8.92937C11.1099 7.83083 12.891 7.83083 13.9896 8.92937" stroke="black" stroke-width="1.3" stroke-linecap="round" stroke-linejoin="round"/>
<path id="Path_3" d="M17.707 19.5635C16.272 18.0525 14.248 17.1055 12 17.1055C9.75197 17.1055 7.72797 18.0525 6.29297 19.5645" stroke="black" stroke-width="1.3" stroke-linecap="round" stroke-linejoin="round"/>
</g>
</g>
</svg>
