<svg width="24" height="25" viewBox="0 0 24 25" fill="none" xmlns="http://www.w3.org/2000/svg">
<path d="M22 12.6057C22 7.09571 17.51 2.60571 12 2.60571C6.49 2.60571 2 7.09571 2 12.6057C2 15.5057 3.25 18.1157 5.23 19.9457C5.23 19.9557 5.23 19.9557 5.22 19.9657C5.32 20.0657 5.44 20.1457 5.54 20.2357C5.6 20.2857 5.65 20.3357 5.71 20.3757C5.89 20.5257 6.09 20.6657 6.28 20.8057C6.35 20.8557 6.41 20.8957 6.48 20.9457C6.67 21.0757 6.87 21.1957 7.08 21.3057C7.15 21.3457 7.23 21.3957 7.3 21.4357C7.5 21.5457 7.71 21.6457 7.93 21.7357C8.01 21.7757 8.09 21.8157 8.17 21.8457C8.39 21.9357 8.61 22.0157 8.83 22.0857C8.91 22.1157 8.99 22.1457 9.07 22.1657C9.31 22.2357 9.55 22.2957 9.79 22.3557C9.86 22.3757 9.93 22.3957 10.01 22.4057C10.29 22.4657 10.57 22.5057 10.86 22.5357C10.9 22.5357 10.94 22.5457 10.98 22.5557C11.32 22.5857 11.66 22.6057 12 22.6057C12.34 22.6057 12.68 22.5857 13.01 22.5557C13.05 22.5557 13.09 22.5457 13.13 22.5357C13.42 22.5057 13.7 22.4657 13.98 22.4057C14.05 22.3957 14.12 22.3657 14.2 22.3557C14.44 22.2957 14.69 22.2457 14.92 22.1657C15 22.1357 15.08 22.1057 15.16 22.0857C15.38 22.0057 15.61 21.9357 15.82 21.8457C15.9 21.8157 15.98 21.7757 16.06 21.7357C16.27 21.6457 16.48 21.5457 16.69 21.4357C16.77 21.3957 16.84 21.3457 16.91 21.3057C17.11 21.1857 17.31 21.0757 17.51 20.9457C17.58 20.9057 17.64 20.8557 17.71 20.8057C17.91 20.6657 18.1 20.5257 18.28 20.3757C18.34 20.3257 18.39 20.2757 18.45 20.2357C18.56 20.1457 18.67 20.0557 18.77 19.9657C18.77 19.9557 18.77 19.9557 18.76 19.9457C20.75 18.1157 22 15.5057 22 12.6057ZM16.94 17.5757C14.23 15.7557 9.79 15.7557 7.06 17.5757C6.62 17.8657 6.26 18.2057 5.96 18.5757C4.44 17.0357 3.5 14.9257 3.5 12.6057C3.5 7.91571 7.31 4.10571 12 4.10571C16.69 4.10571 20.5 7.91571 20.5 12.6057C20.5 14.9257 19.56 17.0357 18.04 18.5757C17.75 18.2057 17.38 17.8657 16.94 17.5757Z" fill="#003366"/>
<path d="M12 7.53564C9.93 7.53564 8.25 9.21565 8.25 11.2856C8.25 13.3156 9.84 14.9656 11.95 15.0256C11.98 15.0256 12.02 15.0256 12.04 15.0256C12.06 15.0256 12.09 15.0256 12.11 15.0256C12.12 15.0256 12.13 15.0256 12.13 15.0256C14.15 14.9556 15.74 13.3156 15.75 11.2856C15.75 9.21565 14.07 7.53564 12 7.53564Z" fill="#003366"/>
</svg>
